<svg width="174" height="174" viewBox="0 0 174 174" fill="none" xmlns="http://www.w3.org/2000/svg">
<g clip-path="url(#clip0)">
<path fill-rule="evenodd" clip-rule="evenodd" d="M166.317 144.825V157.051H7.68164V148.438C7.68164 147.486 8.466 146.719 9.41824 146.702L164.58 143.088C165.532 143.067 166.317 143.873 166.317 144.825Z" fill="#E29D7B"/>
<path fill-rule="evenodd" clip-rule="evenodd" d="M166.317 157.051V169.277C166.317 170.233 165.532 171.034 164.58 171.017L9.41824 167.403C8.45546 167.372 7.68164 166.619 7.68164 165.667V157.051H166.317Z" fill="#E29D7B"/>
<path fill-rule="evenodd" clip-rule="evenodd" d="M168.492 2.98438H5.50785C2.51077 2.98438 0.0496172 5.41596 0 8.40318V8.49256V123.566V123.655C0.0496172 126.643 2.51077 129.074 5.50785 129.074H168.492C171.489 129.074 173.95 126.653 174 123.665V123.566V8.49256V8.40318C173.95 5.4061 171.489 2.98438 168.492 2.98438Z" fill="#E29D7B"/>
<path fill-rule="evenodd" clip-rule="evenodd" d="M52.4399 55.7033C46.9321 56.2195 42.0196 52.3786 41.1163 47.0094C40.4315 47.2276 39.707 47.3764 38.9627 47.4461C33.1969 47.982 28.0758 43.7442 27.5399 37.9781C26.9941 32.2119 31.2316 27.0908 37.0076 26.5549C42.5154 26.0387 47.418 29.8796 48.3312 35.2488C49.016 35.0306 49.7303 34.8814 50.4749 34.8121C56.2509 34.2761 61.3618 38.514 61.9076 44.2801C62.4432 50.0462 58.2057 55.1674 52.4399 55.7033ZM75.7913 16.6406H13.6562V65.6274H75.7913V16.6406Z" fill="#FFD772"/>
<path fill-rule="evenodd" clip-rule="evenodd" d="M88.3649 45.9277V36.3308C88.3649 31.2991 92.4835 27.1805 97.5148 27.1805C100.234 27.1805 102.685 28.3815 104.362 30.2769C106.039 28.3812 108.491 27.1805 111.22 27.1805C113.939 27.1805 116.39 28.3815 118.068 30.2769C119.745 28.3812 122.196 27.1805 124.915 27.1805C127.634 27.1805 130.095 28.3815 131.773 30.2769C133.45 28.3812 135.901 27.1805 138.62 27.1805C143.652 27.1805 147.77 31.2991 147.77 36.3308V45.9277C147.77 50.9594 143.652 55.078 138.62 55.078C135.99 55.078 133.509 53.9466 131.773 51.9817C130.096 53.8773 127.635 55.078 124.915 55.078C122.285 55.078 119.804 53.9466 118.068 51.9817C116.39 53.8773 113.939 55.078 111.22 55.078C108.58 55.078 106.109 53.9466 104.362 51.9817C102.685 53.8773 100.234 55.078 97.5148 55.078C92.4835 55.078 88.3649 50.9594 88.3649 45.9277ZM159.68 16.6406H75.791V65.6274H100.929H160.345V16.6406H159.68Z" fill="#FFD772"/>
<path fill-rule="evenodd" clip-rule="evenodd" d="M75.7913 65.627H13.6562V115.428H100.929V65.627H75.7913Z" fill="#F9F6F6"/>
<path fill-rule="evenodd" clip-rule="evenodd" d="M100.928 65.627H160.344V115.428H100.928V65.627Z" fill="#FFD772"/>
<path d="M7.68164 154.425H166.317V159.676H7.68164V154.425Z" fill="#CE8B6B"/>
<path fill-rule="evenodd" clip-rule="evenodd" d="M130.602 65.707C120.182 65.707 111.727 85.278 111.727 95.6986C111.727 120.53 149.478 120.53 149.478 95.6986C149.478 85.2783 141.033 65.707 130.602 65.707ZM130.622 88.9401C134.493 88.9401 137.629 92.0762 137.629 95.9467C137.629 99.8172 134.493 102.953 130.622 102.953C126.762 102.953 123.626 99.8172 123.626 95.9467C123.626 92.0762 126.762 88.9401 130.622 88.9401Z" fill="#F9F6F6"/>
<path fill-rule="evenodd" clip-rule="evenodd" d="M106.665 36.331C106.665 34.0187 105.792 31.8946 104.363 30.277C102.686 28.3813 100.234 27.1807 97.5152 27.1807C92.4838 27.1807 88.3652 31.2992 88.3652 36.331V45.9278C88.3652 50.9595 92.4838 55.0781 97.5152 55.0781C100.234 55.0781 102.686 53.8771 104.363 51.9818C105.792 50.3641 106.665 48.2401 106.665 45.9278V36.331Z" fill="#A7E9A6"/>
<path fill-rule="evenodd" clip-rule="evenodd" d="M120.369 36.331C120.369 34.0187 119.496 31.8946 118.067 30.277C116.389 28.3813 113.938 27.1807 111.219 27.1807C108.49 27.1807 106.039 28.3817 104.361 30.277C105.79 31.8946 106.664 34.0183 106.664 36.331V45.9278C106.664 48.2401 105.79 50.3641 104.361 51.9818C106.108 53.9468 108.579 55.0781 111.219 55.0781C113.938 55.0781 116.389 53.8771 118.067 51.9818C119.496 50.3641 120.369 48.2401 120.369 45.9278V36.331Z" fill="#4FC9AF"/>
<path fill-rule="evenodd" clip-rule="evenodd" d="M131.774 30.277C130.096 28.3813 127.635 27.1807 124.916 27.1807C122.197 27.1807 119.745 28.3817 118.068 30.277C119.497 31.8946 120.371 34.0183 120.371 36.331V45.9278C120.371 48.2401 119.497 50.3641 118.068 51.9818C119.805 53.9468 122.286 55.0781 124.916 55.0781C127.635 55.0781 130.096 53.8771 131.774 51.9818C133.203 50.3641 134.066 48.2401 134.066 45.9278V36.331C134.066 34.0187 133.203 31.8946 131.774 30.277Z" fill="#A7E9A6"/>
<path fill-rule="evenodd" clip-rule="evenodd" d="M147.771 36.331C147.771 31.2992 143.652 27.1807 138.621 27.1807C135.902 27.1807 133.451 28.3817 131.773 30.277C133.202 31.8946 134.066 34.0183 134.066 36.331V45.9278C134.066 48.2401 133.202 50.3641 131.773 51.9818C133.51 53.9468 135.991 55.0781 138.621 55.0781C143.652 55.0781 147.771 50.9595 147.771 45.9278V36.331Z" fill="#4FC9AF"/>
<path fill-rule="evenodd" clip-rule="evenodd" d="M61.9068 44.2803C61.361 38.5142 56.2501 34.2767 50.4741 34.8123C49.7298 34.8816 49.0152 35.0304 48.3304 35.249C43.6959 36.6879 40.5398 41.2136 41.0162 46.2354C41.036 46.5032 41.0659 46.7615 41.1155 47.0096C42.0184 52.3788 46.9309 56.2194 52.4391 55.7035C58.2049 55.1675 62.4424 50.0464 61.9068 44.2803Z" fill="#F37C7C"/>
<path fill-rule="evenodd" clip-rule="evenodd" d="M48.3305 35.2491C47.4173 29.8799 42.5151 26.0393 37.0069 26.5552C31.2312 27.0911 26.9937 32.2123 27.5395 37.9784C28.0754 43.7445 33.1962 47.982 38.9623 47.4464C39.7066 47.3771 40.4311 47.2282 41.1159 47.0097C41.0663 46.7616 41.0364 46.5037 41.0167 46.2356C40.5399 41.2137 43.696 36.688 48.3305 35.2491Z" fill="#F37C7C"/>
<path fill-rule="evenodd" clip-rule="evenodd" d="M137.628 95.946C137.628 92.0755 134.492 88.9395 130.621 88.9395C126.761 88.9395 123.625 92.0755 123.625 95.946C123.625 99.8165 126.761 102.953 130.621 102.953C134.492 102.953 137.628 99.8165 137.628 95.946Z" fill="#FBBA58"/>
<path fill-rule="evenodd" clip-rule="evenodd" d="M174.001 123.566V8.49256V8.40318C173.951 5.4061 171.49 2.98438 168.493 2.98438H89.457C95.4709 6.60677 100.929 11.2215 105.643 16.6403H159.68H160.345V65.6271V115.428H108.521C104.522 120.648 99.8773 125.253 94.7168 129.074H168.493C171.49 129.074 173.951 126.653 174.001 123.665V123.566Z" fill="#CE8B6B"/>
<path fill-rule="evenodd" clip-rule="evenodd" d="M100.929 115.428V65.627H75.7909H56.6373C60.8453 72.2366 63.336 80.4142 63.336 89.2668C63.336 99.2807 60.1503 108.431 54.9004 115.428H100.929Z" fill="#E5E4ED"/>
<path d="M30.3976 81.5421C28.9526 81.5421 27.7781 80.3741 27.7719 78.9277L27.7617 76.5757C27.7556 75.1256 28.926 73.9449 30.3762 73.9385H30.3877C31.8327 73.9385 33.0072 75.1065 33.0133 76.5529L33.0235 78.905C33.0297 80.3551 31.8592 81.5357 30.4091 81.5421C30.405 81.5421 30.4013 81.5421 30.3976 81.5421Z" fill="#BED8FB"/>
<path d="M52.1802 106.918C51.5423 106.918 50.9027 106.687 50.3974 106.22L48.6706 104.622C47.6062 103.638 47.5417 101.976 48.5265 100.912C49.5114 99.8477 51.1729 99.7828 52.2373 100.768L53.9641 102.365C55.0285 103.35 55.093 105.011 54.1082 106.076C53.5909 106.635 52.8868 106.918 52.1802 106.918Z" fill="#BED8FB"/>
<path d="M32.0756 105.609C31.369 105.609 30.6649 105.326 30.1476 104.767C29.1628 103.702 29.2273 102.041 30.2917 101.056L32.0185 99.4582C33.0832 98.4733 34.744 98.5379 35.7292 99.6023C36.7141 100.667 36.6495 102.328 35.5851 103.313L33.8584 104.911C33.353 105.378 32.7135 105.609 32.0756 105.609Z" fill="#BED8FB"/>
<path d="M87.0043 85.1248C86.3691 85.1248 85.7322 84.8957 85.2276 84.4318L83.5008 82.8441C82.4334 81.8626 82.3637 80.2014 83.3452 79.1336C84.3267 78.0662 85.9875 77.9965 87.0556 78.978L88.7823 80.5658C89.8498 81.5472 89.9195 83.2084 88.938 84.2762C88.4201 84.8393 87.7132 85.1248 87.0043 85.1248Z" fill="#BED8FB"/>
<path d="M84.5727 104.885C83.1327 104.885 81.9596 103.724 81.9474 102.281C81.9351 100.831 83.1005 99.6452 84.5509 99.6333L86.8931 99.6136C88.3514 99.5922 89.5289 100.767 89.5408 102.217C89.5531 103.667 88.3878 104.853 86.9373 104.865L84.5951 104.885C84.588 104.885 84.5805 104.885 84.5727 104.885Z" fill="#BED8FB"/>
<path d="M49.5914 93.5506C49.5836 93.5506 49.5765 93.5506 49.569 93.5503L47.2169 93.5306C45.7668 93.5183 44.6011 92.333 44.6134 90.8828C44.6256 89.4402 45.7988 88.2793 47.2387 88.2793H47.2611L49.6132 88.299C51.0633 88.3112 52.2289 89.4966 52.2167 90.9467C52.2045 92.3897 51.0313 93.5506 49.5914 93.5506Z" fill="#BED8FB"/>
<path d="M63.5048 93.2827C62.0649 93.2827 60.8918 92.1218 60.8795 90.6792L60.8595 88.3271C60.8469 86.877 62.0126 85.6913 63.4627 85.679C63.4701 85.6787 63.478 85.6787 63.4854 85.6787C64.9254 85.6787 66.0985 86.8396 66.1107 88.2823L66.1308 90.6343C66.1434 92.0844 64.9777 93.2701 63.5276 93.2824C63.5201 93.2827 63.5123 93.2827 63.5048 93.2827Z" fill="#BED8FB"/>
<path d="M27.9879 93.3C27.3187 93.3 26.6499 93.0448 26.1385 92.5333L26.1286 92.5235C25.103 91.4982 25.103 89.8353 26.1286 88.81C27.1539 87.7847 28.8168 87.7847 29.8421 88.81C30.8677 89.8353 30.8725 91.5029 29.8472 92.5282C29.3333 93.0421 28.6604 93.3 27.9879 93.3Z" fill="#BED8FB"/>
<path d="M46.7945 80.5568C46.1254 80.5568 45.4566 80.3016 44.9451 79.7901L44.9353 79.7803C43.9096 78.755 43.9096 77.0921 44.9353 76.0668C45.9606 75.0415 47.6234 75.0415 48.6487 76.0668C49.6744 77.0921 49.6791 78.7597 48.6538 79.785C48.14 80.2989 47.4671 80.5568 46.7945 80.5568Z" fill="#BED8FB"/>
<path d="M68.5167 106.114H68.5068C67.0567 106.114 65.8809 104.939 65.8809 103.488C65.8809 102.038 67.0564 100.862 68.5068 100.862C69.9569 100.862 71.1376 102.038 71.1376 103.488C71.1376 104.939 69.9668 106.114 68.5167 106.114Z" fill="#BED8FB"/>
<path d="M79.0582 94.2229C78.3891 94.2229 77.7202 93.9676 77.2088 93.4562L77.1989 93.4463C76.1733 92.421 76.1733 90.7582 77.1989 89.7328C78.2242 88.7075 79.8871 88.7075 80.9124 89.7328C81.938 90.7582 81.9428 92.4258 80.9175 93.4511C80.4036 93.9652 79.7308 94.2229 79.0582 94.2229Z" fill="#BED8FB"/>
<path fill-rule="evenodd" clip-rule="evenodd" d="M75.7901 65.6277V16.6406H51.7441C67.4341 24.0543 74.0437 50.3637 57.6092 65.6274H75.7901V65.6277Z" fill="#FBBA58"/>
<path fill-rule="evenodd" clip-rule="evenodd" d="M159.679 16.6406H113.582C117.532 19.3002 120.817 22.9923 123.09 27.359C123.685 27.24 124.29 27.1802 124.915 27.1802C127.635 27.1802 130.096 28.3812 131.773 30.2765C133.45 28.3809 135.902 27.1802 138.621 27.1802C143.652 27.1802 147.771 31.2988 147.771 36.3305V45.9273C147.771 50.9591 143.652 55.0776 138.621 55.0776C135.991 55.0776 133.51 53.9463 131.773 51.9813C130.096 53.877 127.635 55.0776 124.915 55.0776C124.498 55.0776 124.072 55.0477 123.665 54.9981C121.69 59.1962 118.802 62.8383 115.289 65.6271H160.345V16.6406H159.679Z" fill="#FBBA58"/>
<path fill-rule="evenodd" clip-rule="evenodd" d="M99.2604 36.5294V46.1263C99.2604 49.7585 97.1167 52.9147 94.0305 54.3933C95.1024 54.8399 96.2834 55.0781 97.5139 55.0781C100.233 55.0781 102.684 53.8771 104.361 51.9818C105.79 50.3641 106.664 48.2401 106.664 45.9278V36.331C106.664 34.0187 105.79 31.8946 104.361 30.277C102.684 28.3813 100.233 27.1807 97.5139 27.1807C96.1046 27.1807 94.7748 27.4984 93.584 28.0639C96.9083 29.4433 99.2604 32.7184 99.2604 36.5294Z" fill="#7FDBAE"/>
<path fill-rule="evenodd" clip-rule="evenodd" d="M112.965 36.5294V46.1263C112.965 49.7585 110.822 52.9147 107.736 54.3933C108.807 54.8399 109.988 55.0781 111.219 55.0781C113.938 55.0781 116.389 53.8771 118.067 51.9818C119.496 50.3641 120.369 48.2401 120.369 45.9278V36.331C120.369 34.0187 119.496 31.8946 118.067 30.277C116.389 28.3813 113.938 27.1807 111.219 27.1807C109.81 27.1807 108.48 27.4984 107.289 28.0639C110.613 29.4433 112.965 32.7184 112.965 36.5294Z" fill="#26BB9E"/>
<path fill-rule="evenodd" clip-rule="evenodd" d="M126.663 36.5294V46.1263C126.663 49.7585 124.519 52.9147 121.443 54.3933C122.515 54.8399 123.686 55.0781 124.916 55.0781C127.635 55.0781 130.096 53.8771 131.774 51.9818C133.203 50.3641 134.066 48.2401 134.066 45.9278V36.331C134.066 34.0187 133.203 31.8946 131.774 30.277C130.097 28.3813 127.636 27.1807 124.916 27.1807C123.517 27.1807 122.187 27.4984 120.996 28.0639C124.32 29.4433 126.663 32.7184 126.663 36.5294Z" fill="#7FDBAE"/>
<path fill-rule="evenodd" clip-rule="evenodd" d="M140.368 36.5294V46.1263C140.368 49.7585 138.224 52.9147 135.138 54.3933C136.22 54.8399 137.391 55.0781 138.621 55.0781C141.34 55.0781 143.792 53.8771 145.479 51.9818C146.908 50.3641 147.772 48.2401 147.772 45.9278V36.331C147.772 34.0187 146.908 31.8946 145.479 30.277C143.792 28.3813 141.341 27.1807 138.621 27.1807C137.222 27.1807 135.892 27.4984 134.701 28.0639C138.016 29.4433 140.368 32.7184 140.368 36.5294Z" fill="#26BB9E"/>
<path fill-rule="evenodd" clip-rule="evenodd" d="M33.4147 46.4434C35.082 47.2574 36.9875 47.6342 38.9623 47.4456C39.7066 47.3763 40.4311 47.2274 41.1159 47.0089C41.0663 46.7608 41.0364 46.5029 41.0167 46.2348C40.5402 41.2129 43.6964 36.6875 48.3308 35.2483C47.8744 32.5289 46.3855 30.2067 44.3213 28.6387C37.4541 31.5865 32.8988 38.6328 33.4147 46.4434Z" fill="#EE6161"/>
<path fill-rule="evenodd" clip-rule="evenodd" d="M52.4394 55.7031C58.2052 55.1672 62.443 50.0461 61.9071 44.2799C61.381 38.752 56.6572 34.6236 51.1891 34.7725C53.2435 36.4795 54.6528 38.9804 54.9206 41.8585C55.4664 47.6247 51.2289 52.7458 45.4627 53.2817C45.2245 53.3116 44.9863 53.3215 44.748 53.3313C46.8221 55.0482 49.5415 55.9811 52.4394 55.7031Z" fill="#EE6161"/>
<path fill-rule="evenodd" clip-rule="evenodd" d="M124.924 67.6224C131.861 72.9518 136.913 85.7442 137.359 94.0113C137.538 94.6267 137.627 95.2717 137.627 95.9467C137.627 96.8496 137.459 97.7132 137.151 98.4972C135.93 106.625 130.254 111.508 123.674 113.156C134.729 117.036 149.476 111.22 149.476 95.6986C149.476 85.2779 141.031 65.707 130.601 65.707C128.626 65.7067 126.721 66.4115 124.924 67.6224Z" fill="#E5E4ED"/>
<path d="M160.344 14.0146H13.6553C12.2052 14.0146 11.0293 15.1902 11.0293 16.6406V115.428C11.0293 116.878 12.2048 118.054 13.6553 118.054H160.344C161.794 118.054 162.97 116.879 162.97 115.428V16.6406C162.97 15.1902 161.794 14.0146 160.344 14.0146ZM16.2812 19.2663H73.1646V63.0014H16.2812V19.2663ZM98.3022 112.802H16.2812V68.253H98.3025V112.802H98.3022ZM157.718 112.802H103.554V68.253H157.718V112.802ZM157.718 63.0014H78.4162V19.2663H157.718V63.0014Z" fill="#365E7D"/>
<path d="M69.519 80.4199C68.8125 80.4199 68.1087 80.1368 67.5911 79.5774C66.6062 78.513 66.6705 76.8519 67.7352 75.8667L69.462 74.2687C70.526 73.2839 72.1875 73.3484 73.1727 74.4128C74.1576 75.4772 74.0934 77.1384 73.0286 78.1236L71.3019 79.7215C70.7969 80.1888 70.1569 80.4199 69.519 80.4199Z" fill="#BED8FB"/>
</g>
<defs>
<clipPath id="clip0">
<rect width="174" height="174" fill="white"/>
</clipPath>
</defs>
</svg>
